<?xml version="1.0" encoding="utf-8"?>
<!-- Generator: Adobe Illustrator 24.1.2, SVG Export Plug-In . SVG Version: 6.00 Build 0)  -->
<svg version="1.1" id="Layer_1" xmlns="http://www.w3.org/2000/svg" xmlns:xlink="http://www.w3.org/1999/xlink" x="0px" y="0px"
	 viewBox="0 0 242 84" style="enable-background:new 0 0 242 84;" xml:space="preserve">
<style type="text/css">
	.st0{fill:#FFC93C;}
</style>
<g id="SvgjsG5261" transform="matrix(1.9007391227505699,0,0,1.9007391227505699,-1.0263995069493852,117.98521913108893)">
	<path class="st0" d="M12.7-57.8v36.5H9.4v-10.9c0-1.1-0.2-2.1-0.5-2.9c-0.3-0.8-1-1.9-2.1-3.3c-1-1.4-1.8-2.6-2.3-3.4
		s-0.8-1.7-1-2.6c-0.2-0.9-0.3-2-0.3-3.4v-10h3.2v10.4c0,1.3,0.2,2.3,0.5,3.1c0.3,0.8,1,1.9,2,3.3l0.4,0.5v-17.4
		C9.4-57.8,12.7-57.8,12.7-57.8z M18.3-54.5v13.3h2.9v3.3h-2.9v13.3h2.9v3.3H15v-36.5h6.1v3.3C21.2-54.5,18.3-54.5,18.3-54.5z
		 M26.8-57.8v33.2h2.9v3.3h-6.1v-36.5C23.5-57.8,26.8-57.8,26.8-57.8z M35.2-57.8v33.2h2.9v3.3H32v-36.5
		C32-57.8,35.2-57.8,35.2-57.8z M49.7-53.8v28c0,3-1.5,4.5-4.4,4.5h1.7h-2.3c-1.6,0-2.7-0.4-3.4-1.2c-0.7-0.8-1-1.9-1-3.3v-28
		c0-1.4,0.3-2.5,1-3.3c0.7-0.8,1.8-1.2,3.4-1.2h1.9h-1.3C48.3-58.3,49.7-56.8,49.7-53.8z M46.5-53.4c0-0.5-0.1-0.9-0.3-1.2
		c-0.2-0.3-0.6-0.4-1.1-0.4c-0.5,0-0.9,0.1-1.1,0.4c-0.2,0.3-0.3,0.7-0.3,1.2v27.2c0,0.5,0.1,0.9,0.3,1.2c0.2,0.3,0.6,0.4,1.1,0.4
		c0.5,0,0.9-0.1,1.1-0.4c0.2-0.3,0.3-0.7,0.3-1.2V-53.4z M67.5-57.8h-3.2l-1.4,23.3l-1.4-23.3h-3.2l-1.4,23.3l-1.5-23.3h-3.2
		l3.1,36.5h3.2l1.4-23.3l1.5,23.3h3.2L67.5-57.8z"/>
</g>
<g id="SvgjsG5262" transform="matrix(1.9007389313370693,0,0,1.9007389313370693,63.47940939873612,117.75713087974883)">
	<path class="st0" d="M40.7-57.9c3,0,4,1.7,4,4.1v5.8c0,3.5-1.3,5.1-3.8,8.8c-1.5,2.2-3.2,4.3-3.2,6.9v10.9h-1.5v-36.5
		C36.2-57.9,40.7-57.9,40.7-57.9z M43.2-47.6v-5.6c0-1.7-0.4-3.2-2.8-3.2h-2.7v19.4c0.6-1,1.4-2.2,2.5-3.6
		C42.1-43.5,43.2-45.2,43.2-47.6z M56.1-54.1v28.9c0,2.4-1,4.1-4,4.1h-0.5c-2.9,0-3.9-1.7-3.9-4.5v-28.9c0-2,1-3.7,4-3.7h0.5
		C55.1-58.2,56.1-56.5,56.1-54.1z M54.6-25.9v-27.6c0-1.7-0.4-3.2-2.8-3.2c-2.3,0-2.7,1.5-2.7,3.2v27.6c0,1.7,0.4,3.2,2.8,3.2
		C54.2-22.7,54.6-24.2,54.6-25.9z M66.1-57.9h1.5v32.7c0,2.4-1,4.1-4,4.1h-0.5c-2.9,0-3.9-1.7-3.9-4.5v-32.3h1.5v32.1
		c0,1.7,0.4,3.2,2.8,3.2c2.3,0,2.7-1.5,2.7-3.2C66.1-25.9,66.1-57.9,66.1-57.9z M77.7-34.9h1.4v9.7c0,2.4-0.9,4.1-3.9,4.1h-0.5
		c-2.9,0-3.9-1.7-3.9-4.5v-28.9c0-2,1-3.7,3.9-3.7h0.5c3,0,3.9,1.7,3.9,4.1v9.6h-1.4v-9c0-1.7-0.4-3.2-2.8-3.2
		c-2.3,0-2.7,1.4-2.7,3.2v27.6c0,1.7,0.4,3.2,2.7,3.2c2.4,0,2.8-1.5,2.8-3.2C77.7-25.9,77.7-34.9,77.7-34.9z M83.7-57.9h-1.4v36.5
		h1.4v-10.9c0-2.6,1.7-4.7,3.2-6.9c0.9-1.4,1.7-2.4,2.3-3.4v21.2h1.4v-36.5h-1.4v10.3c0,2.4-1.1,4.1-3,6.9c-1,1.5-1.8,2.6-2.5,3.6
		C83.7-37.1,83.7-57.9,83.7-57.9z"/>
</g>
</svg>
