<?xml version="1.0" encoding="utf-8"?>
<!-- Generator: Adobe Illustrator 24.1.2, SVG Export Plug-In . SVG Version: 6.00 Build 0)  -->
<svg version="1.1" id="Layer_1" xmlns="http://www.w3.org/2000/svg" xmlns:xlink="http://www.w3.org/1999/xlink" x="0px" y="0px"
	 viewBox="0 0 230.6 279.6" style="enable-background:new 0 0 230.6 279.6;" xml:space="preserve">
<style type="text/css">
	.st0{fill:none;}
	.st1{fill:#FFC93C;}
</style>
<g id="SvgjsG5260" transform="matrix(1.1093745577047376,0,0,1.1093745577047376,3.532418967276005,-5.547385909804822)">
	<g>
		<path class="st0" d="M107.5,62.5c5.7,18.8,16.6,32.4,18.1,55.4c2.3-1.5,4.6-2.9,6.6-4.8c4.5-1.9,9.2-3.8,12.4-7.1
			c0.5-0.3,1.1,0.6,1.1-0.2c0-4.2-0.5-8-0.7-12c-3.3,2.3-7.4,4.9-11.5,6.6c-1.1,0.4-3.4,2-4.3,0c0.4-1.2,1.7-0.8,2.5-1.1
			c5.2-1.7,9.7-5.1,13.3-8.3c0.1-1-0.2-1.6-0.2-2.5c-3.6,2.1-8,4-11.5,6.2c-1,0.6-2.6,2.2-3.9,1.1c0.2-1.6,2.2-2.1,3.4-2.8
			c4-2.4,8.4-4.1,11.9-6.7c0.1-1.2-0.5-1.8-0.4-3c-4.1,2.2-8.1,5.6-12.4,7.8c-1.2,0.6-3.7,2.2-4.8,0.2c0.2-1.1,1.8-0.8,2.7-1.1
			c3.2-1.1,8-4.6,11-6.7c1.9-1.3,4-2.4,3-5.1c-3.5,2-7.5,4.3-11.3,6.2c-1,0.5-3.8,2.1-4.1,0.5c-0.2-0.9,2.5-2,3.5-2.5
			c3-1.5,5.4-2.5,8-4.1c1.8-1.1,4.6-2.2,3.2-4.6c-3.5,1.8-7,4.5-11,6c-1,0.4-3.2,2-3.9,0c0.8-1.2,2.5-1.2,3.9-1.8
			c2.8-1.2,4.9-2.7,7.4-4.3c1.9-1.2,4.1-2.4,2.8-5.3c-3.2,1.5-6.7,3.4-9.6,5.3c-0.8,0.6-2.1,2.2-3.2,0.9c-0.1-1.4,1.6-1.8,2.7-2.5
			c1-0.6,2.1-1.3,3.2-2c1.1-0.7,6.1-2.9,6.4-4.1c0.2-1.1-0.9-2.5-1.2-3.7c-2.7,2.2-6.1,4.5-9.7,6c-0.8,0.3-3.5,1.8-3.5,0
			c0-1,2.5-1.4,3.4-1.8c3.7-1.6,6.7-4,9.4-6c-0.2-1-0.7-1.7-0.9-2.7c-1.8,1.1-3.2,2-5.3,3.4c-0.4,0.3-5.5,4-5.8,1.6
			c-0.2-1.2,1.7-1.1,2.5-1.4c2.2-1,5.9-3.8,7.8-5.7c-0.3-1-1.1-1.5-1.4-2.5c-2.3,1.8-5.1,4-7.8,5.5c-0.8,0.4-2.1,1.8-3,0.5
			c-0.1-1.3,1.3-1.7,2.1-2.1c2.9-1.6,5.5-3.3,7.4-5.7c-0.5-0.7-0.8-1.6-1.6-2.1c-1.2,1.1-2.3,1.8-3.9,3c-0.6,0.5-4,3.3-4.4,1.2
			c-0.2-1.1,2.1-1.6,2.7-1.9c2-1.2,5.9-4,3.9-5.8c-0.9,0.4-2,1.5-3.2,2.5c-1,0.8-2.4,2.7-3.9,1.2c0-0.2-0.1-0.2-0.2-0.4
			c1.2-1.6,6-3.4,6.2-5.7c0.1-1-0.9-2.4-1.1-3.5c-0.6-5-0.2-11.5-0.7-16.8c-4.6,0.2-10.3,0.8-15.9,0.5c0.7,4.8,0.9,11.2-0.7,15.1
			c-0.3,0.7-2.1,1.6-2.1,2.8c0,1,1.8,2.8,2.5,4.4C115.2,51.2,117.2,65.1,107.5,62.5z M136.4,108.9c-1.4,0.6-2.9,1.1-4.3,1.8
			c-1.2,0.6-2.6,2.1-3.9,1.2c0.6-2.4,3.6-3,5.7-3.9c2.8-1.2,5.8-2.4,8-4.1c0-0.2,0.4-0.1,0.4-0.4c0.6-0.1,0.9,0.1,1.2,0.4
			C142.7,106.8,139,107.8,136.4,108.9z M131,105.4c4.1-1.8,10-5.2,12.8-8.1c0.6-0.1,0.7,0.2,1.1,0.4c-0.8,3.4-4.8,5-7.8,6.6
			c-1.4,0.8-3,1.8-4.6,2.5c-1.5,0.7-3.5,2-5.1,0.9C127.7,105.8,129.8,105.9,131,105.4z M129.3,31.4c-0.7,2-2.8,5.3-5.1,3.9
			c-0.1-1.1,0.7-1.2,1.4-1.4C126.4,32.8,127.4,30.3,129.3,31.4z M128.2,35.8c-0.6,1.8-2.2,2.7-4.1,3.2
			C123.1,37.1,126.8,34.6,128.2,35.8z M127.5,27.3c-0.8,1.6-1.8,3-3.7,3.5C122.8,29.1,125.9,25.9,127.5,27.3z M124.8,42.2
			c1.2-0.9,2.6-2,3.5-3c0.6-0.1,0.9,0.1,1.2,0.4c0.1,1.7-1.7,2.4-2.7,3.2c-1,0.8-2.2,2.1-3.5,1.8C122.6,43.1,124.2,42.6,124.8,42.2z
			"/>
		<path class="st0" d="M141.5,124c0.1,0.4,0.2,1,0.9,1.1c-0.1-2.5-0.1-6.8-0.9-9.2C141.8,118.5,140.7,121.3,141.5,124z"/>
		<path class="st0" d="M145.4,107.7c-1.3,1.8-3.6,2.7-5.5,3.9C143.4,112,145.3,110.1,145.4,107.7z"/>
		<path class="st0" d="M37.2,115.3c-0.2-2-0.1-4.3-0.9-5.7c-2.5,6.8-9.1,10.7-9.2,19.3c2.9-4.5,6.2-8.5,9-13.1
			C36.2,115.4,37.3,116,37.2,115.3z"/>
		<path class="st0" d="M113.3,20.6c4.5,0.9,12.8-0.9,17.2-0.9c0.4-1.1,0.7-2.3,0.5-3.9c-5.4,1.6-14.5,3.4-20.6,1.1
			C110.8,18.5,111.9,20.3,113.3,20.6z"/>
		<path class="st0" d="M82.1,155c7.2-7,15.6-13.7,22.7-20.2c-4.6,2.6-9,6.1-13.1,9c-1.3,0.9-2.8,2.7-4.6,2.1
			c-0.3-1.5,1.6-2.2,2.5-2.8c7.8-5.6,16.2-10.9,23.4-16.8c0.7-0.2,0.7,0.4,1.2,0.4c1.2-1.1,2.3-2.2,3.9-3.4c1.2-0.9,3.9-1.8,4.2-3.2
			c0.4-1.4-0.6-4.5-0.9-6.4c-0.9-6.7-2.1-13.1-4.1-18.2c-1-2.6-2.5-5.1-3.7-7.8c-3.6-8-6.9-17-10.1-24.8c-7.8,1.1-16.5,1-25.2,0.4
			c-1.8-0.1-3.6,0.1-5.3,0c-1.5-0.1-2.8-0.6-4.3-0.7c-4.8-0.4-9.2,0.3-14,0.7c-1.2,0.1-2.4-0.1-3.5,0c-3.3,0.3-7.3,1.1-10.6,1.4
			c-1.1,0.1-2.4,0.2-3.4,0c-1-0.2-1.8-1.4-2.5-1.1c0,3.1,0,5.9,0.4,8.3c0.5,3.5,2.3,6.5,2.8,9.9c0.9,5.5,0.7,11.6,1.4,17.5
			c0.3,2.4,0.1,5.5,0.3,8.5c0.5,5.6,2,11.1,1.4,17.2c-0.3,2.8,0,6.5-0.4,9.7c-0.2,2.4-1,4.9-1.4,7.4c-0.4,2.6-0.8,5.1-1.6,7.4
			c-2,6.3-3.1,12.7-5.8,18.2c1,0.2,1.8,0.5,3,0.5c0.5-1.8,1.5-3.6,2.1-5.7c0.6-1.8,0.9-4.6,2.7-5.3c1.3,1,0.1,2.6-0.3,3.9
			c-1,2.7-1.6,5.5-2.8,7.4c3,0,4.8,1.1,7.6,1.2c2.3-3.5,3.4-8.7,4.8-12.9c0.4-1.3,0.5-3.6,2.1-3.9c1.1,1.2,0.1,3-0.4,4.3
			c-1.5,4.4-2.6,9.2-4.4,12.9c1.4-0.1,2.3,0.3,3.5,0.3c1.1-4.3,3-9.2,3.5-14c0.1-1.1-0.5-3.2,1.1-3.5c1.5,0.9,0.7,3,0.5,4.4
			c-0.5,3.4-1.3,6.5-2.1,9.2c-0.5,1.5-1.2,2.9-1.1,4.1c1.9,1,1.5-1.8,2.7-2.1c1.6-3.8,3.5-8.8,4.3-13.4c0.2-0.9-0.5-2.6,1.1-2.8
			c1.5,1.2,0.5,3.6,0.2,5.1c-1.2,5.2-2.7,9.9-4.6,14.3c1.2,0,2.5,0,3.7,0c-0.2,0-0.2-1.5,0-2c1.4-5,3.4-11.8,3.9-17.4
			c0.1-1.4-0.5-3.2,1.1-3.8c1.2,1.1,0.9,3.2,0.7,4.8c-0.7,6-2.8,12-4.4,18.5c6.3,0,12.6,0,18.9,0c1.1-4.4,1.9-7.9,3-11.6
			C81.3,159.1,82.1,156.8,82.1,155z M86.4,93.9c0.7-1.9,2.6-2.9,4.1-4.1c4.5-3.7,8.5-8.4,12.2-13.1c0.6-0.1,0.8,0.2,1.1,0.4
			c-0.3,2.1-1.9,3.9-3.4,5.5c-2.8,3.1-5.7,5.9-9,8.7C90,92.4,88.4,95,86.4,93.9z M117.9,118.5c-0.7,3-4,4.1-6.2,5.8
			c-5.6,4.3-11.3,8.5-17,12.9c-0.9,0.7-2.2,2.4-3.7,1.4c0.2-1.5,1.9-2.1,2.8-2.8c5.1-4.1,10.7-8,16.1-12.2c2.4-1.9,4.9-3.4,6.9-5.5
			C117.5,118,117.6,118.4,117.9,118.5z M116,115.1c0.6,1.4-1.2,2.2-1.9,2.8c-4.5,3.6-9.5,7.3-14,11.2c-0.8,0.7-1.7,1.6-2.7,2.3
			c-0.8,0.6-2.1,1.8-3.2,1.1c-0.4-1.4,1.3-2,2.1-2.7c5.3-4.3,11.2-8.6,16.6-13.1C113.8,116,114.5,114.4,116,115.1z M111.7,100.8
			c0.6-0.1,0.9,0.1,1.2,0.4c-0.1,2.1-2.1,3-3.5,4.1c-1,0.7-2,2-3,1.2C107,103.4,110.5,103.2,111.7,100.8z M107.5,100.8
			c-1.1,1-2.7,3-4.4,2.3c-0.4-1.4,1.2-1.7,2.1-2.5c1.8-1.5,3.6-5.1,5.7-4.1C110.6,98.4,108.7,99.6,107.5,100.8z M110.1,91.6
			c-0.4,2.7-3.3,4-5.1,5.5c-0.9,0.7-1.8,1.7-2.8,2.5c-0.9,0.7-2.1,2.1-3.4,1.2c0.6-2.2,2.9-3.2,4.4-4.4c1.6-1.3,3.1-2.7,4.8-3.9
			c0.2-0.5,0.6-0.8,0.9-1.2C109.5,91.1,109.8,91.3,110.1,91.6z M108,87.3c-1,2.8-3.7,5.1-5.8,7.1c-1,0.9-2.3,2-3.4,3
			c-1,0.9-2.3,2.6-3.9,1.8c0-1.7,1.9-2.2,2.8-3c3.1-2.8,6.1-6,9-9.2C107.4,86.9,107.7,87.1,108,87.3z M102.3,86.6
			c-2.2,2.8-4.2,5-7.1,7.3c-1.2,0.9-2.5,2.9-4.2,2.3c0-1.7,1.7-2.7,2.8-3.5c1.2-0.9,2.4-1.9,3.5-3c2.4-2.4,4.3-5,6.4-7.6
			c0.7-0.1,1.1,0,1.4,0.4C104.8,84,103.4,85.3,102.3,86.6z M97.6,73c0.1-0.2,0.3-0.3,0.4-0.5c0.7-0.1,0.9,0.1,1.2,0.3
			c-0.3,2.8-2.7,4.4-4.6,6c-0.9,0.8-2,2.1-3.4,1.6c-0.4-1.7,1.6-2.5,2.7-3.4c1.1-1,2.1-2.1,3.2-3C97.1,73.6,97.3,73.2,97.6,73z
			 M95.3,71.6c-0.8,1.7-2.1,3.1-4.2,3.5c-0.2-0.2-0.3-0.5-0.5-0.7C91.5,73.1,93.4,70.2,95.3,71.6z M86.8,88.4
			c3.9-3.7,8.3-8.2,11.7-12.6c1.6-2.1,2.5-4.5,4.3-6.5c0.6-0.1,0.8,0.2,1.1,0.4c-2.3,7.6-8.5,12.1-13.3,17.4
			c-0.8,0.8-1.6,1.8-2.5,2.7c-0.7,0.7-1.5,2.3-2.8,1.8C84.5,90,86,89.1,86.8,88.4z M43.5,165.1c-0.6,1.3-1.2,3.6-3,3.7
			c-0.4-2.7,1.8-4.9,2.8-7.4c0.9-2.1,1.6-4.6,2.5-6.6c0.1-0.2,0.3-0.3,0.4-0.5c0.4,0,0.9,0,1.1,0.2C47,158.1,45.2,161.6,43.5,165.1z
			 M65.7,168c-0.3,1.3-0.6,3.4-1.8,3.2c-1.5-0.3-0.2-2.9,0-3.6c1.1-4,1.8-9,2.5-12.7c0.1-0.3,0.3-0.2,0.5-0.2c0.2,0,0.5,0,0.7,0
			C68.1,156.8,66.8,163.6,65.7,168z M68.2,170.1c-0.3-2.4,1-5.3,1.6-8.5c0.6-3.4,0.9-7.4,2.5-9.4c0.4-0.1,0.7,0,0.9,0.2
			c-0.6,4.2-1.4,9.8-2.7,14.3C70.1,167.9,69.9,170.2,68.2,170.1z M72.4,170.4c-1.3-0.5-0.6-2.2-0.4-3.2c0.8-3,1.7-6.8,2.5-9.9
			c0.1-0.2,0.3-0.3,0.4-0.5c0.4,0,0.9,0,1.1,0.2c0,3.4-1.2,7.2-2.1,10.6C73.6,168.6,73.7,170.2,72.4,170.4z M77.9,168.3
			c-0.1,0.9,0.1,2.7-1.2,2.8c-1.3-0.5-0.6-2.2-0.5-3.2c0.4-3.3,1.6-6.7,2.3-9.6c0.1-0.2,0.3-0.3,0.4-0.5c0.4,0,0.9,0,1.1,0.2
			C80,161.3,78.4,164.7,77.9,168.3z"/>
		<path class="st0" d="M139.9,124.4c-0.5-3.1-0.3-5-0.2-8c-0.8-0.2-2.2,0.5-3,0.9c0,0.9,0.1,1.7,0.3,2.3c0.2-0.9-0.1-2.4,1.2-2.1
			c0.3,0.1,0.4,0.3,0.5,0.5c0,1.3,0.2,2,0.2,3C139,122.2,138.3,124.6,139.9,124.4z"/>
		<path class="st0" d="M107.7,133.2c0.3-0.5,1.8-1.5,1.4-1.4C108.7,132.2,107.4,132.7,107.7,133.2z"/>
		<path class="st0" d="M35.4,90c-0.3-0.6-0.1-1.7-0.5-2.1c-0.9,2.1-2.1,4.8-1.6,7.6C34.2,93.9,33.8,91,35.4,90z"/>
		<path class="st0" d="M34.3,145.1c0.7-0.4,1,0.8,1.1,0c0.4-0.9,0.4-2.2,0.7-3.2c-2.5,2.5-4.9,5.1-7.1,7.6c-0.7,0.8-1.2,2.3-2.5,2.5
			c-1.4-1.4,0.5-2.9,1.2-3.7c2.9-3.3,6-6.8,8.9-9.7c-0.1-1.1,0.8-2.3,0.4-3.2c-2.6,3.7-6,6.5-8.9,9.9c0.3,2-2.2,3-2.5,1.2
			c-0.2-1.7,2.8-4.2,4.3-5.9c2.8-3,4.9-4.8,6.4-7.6c0.3-0.3,0.9-0.3,1.2-0.5c-0.1-1.9,0.2-4.3-0.2-5.8c-1.2,2.1-2.8,4-4.3,6
			c-1.4,2-2.2,4.7-4.6,5.8c-1.4-1.2,0.4-2.5,1.1-3.4c2.3-3.4,4.4-7.2,6.9-9.9c0.8-0.3,0.8,0.6,1.2,0.2c0.3-2.6,0.3-5.9-0.5-8
			c-3.5,5.5-7.5,10.6-11,16.1c-1.2,6.6-1.7,14.7,0,21.1C29.3,151.9,31.8,148.4,34.3,145.1z"/>
		<path class="st0" d="M119.7,14.5c4.5-0.4,9.3-1.3,11.9-3.4c-5.4-1.3-14.8-1.1-19.3,0.7c0.5,0.7,0.9,1.4,1.2,2.3
			C115.4,14.6,117.6,14.7,119.7,14.5z"/>
		<path class="st0" d="M32.2,102c0.2-0.5,0.9-1.3,0.5-1.8C32.3,100.5,32,101.8,32.2,102z"/>
		<path class="st0" d="M42.1,60.9c1.1-0.2,2.3-0.3,3.4-0.5c0.2-1.4,0.7-3.2,0.9-5c0.1-1.1-0.4-3,1.1-3.2c2,1.7-0.2,5.2,0.2,8
			c1.1-0.1,2.2-0.2,3.3-0.3c-0.2,0-0.5-0.1-0.8-0.4c0.7-2.7,0.2-5.1,1.1-7.3c0.3,0,0.6,0,0.9,0c0.7,1.8,0.8,7.3-0.9,7.6
			c0.9-0.1,1.8-0.1,2.8,0c0.3-0.2-0.5-0.6-0.4-1.1c1.4-1.5-0.4-6.9,1.6-6.9c1,0,0.7,2,0.7,2.7c0,1.9,0.1,4.3-0.7,6.4
			c0.7,0,1.4,0,2.1,0c0.1,0-0.3-0.9-0.2-1.5c2-1.6-0.3-6,1.9-7c1.6,1.6,0.8,6.4-0.2,8.6c1,0,2,0,3,0c0.1-2.2,0.5-3,0.7-4.3
			c0.2-1.1-0.3-4,1.1-4.1c1.7,1.4,0.4,4.4,0,6.6c0.7-0.1,1.9,0.2,2.3-0.2c-0.3-0.2-0.4-0.6-0.4-1.1c1.4-1.7,0-5.1,1.9-6
			c1.8,1.5,0.2,5.5-0.5,7.3c1.1-0.1,2.7,0.2,3.5-0.2c-0.4-0.1-0.1-0.9-0.2-1.2c1.2-1.8,0.4-5.3,0.7-6.9c0.2-0.8,0.3-1.5,1.1-1.4
			c1,0.1,0.7,1.6,0.7,2.5c0,2.2-0.1,6-1.2,7.6c1.2-0.1,1.9,0.4,3.2,0.3c0.1-2.2,0.2-4.1,0.2-6c0-1.1-0.3-3,1.1-3.4
			c1.2,0.9,0.9,2.5,0.9,3.7c0,1.2-0.2,2.5-0.2,4.1c-0.1,0.6-0.5,0.9-0.5,1.6c1-0.1,1.9,0,2.8,0c-0.1-2.4,0.7-5.7,1.1-7.6
			c0.3,0,0.6,0,0.9,0c0.7,0,0.4,2.9,0,5.1c-0.1,0.8-0.3,1.9-0.6,2.6c0.7,0.1,1.3,0.1,2,0.2c-0.1-0.5-0.5-0.6-0.3-1.4
			c1.3-1.8,0.2-6.1,2.1-7.2c1.1,0.4,0.8,2.2,0.7,3.3c-0.1,1.2-0.5,3.3-0.9,4.3c-0.2,0.6-0.9,1.8-0.5,1.8c0.8,0,1.5,0,2.3,0
			c1.1-2.2,0.4-5.7,0.9-7.9c0.1-0.5,0.2-1.9,1.1-1.7c0.8,0.1,0.8,1.3,0.9,1.8c0.3,2.1-0.7,5.7-0.9,7.9c0.8,0,1.7,0,2.5,0
			c0,0,0.5-3,0.5-4.3c0.1-2-0.9-6,0.3-6.3c1.5-0.3,1.4,2.9,1.4,3.5c0,1.7-0.3,2.7-0.2,4.6c-0.1,0.6-0.5,0.9-0.5,1.6
			c3.3-0.1,7,0.3,9.6-0.5c0-1.8,0.1-9,1.6-8.8c1.1,0.1,0.8,1.9,0.7,2.9c-0.2,2.2-0.9,4.1-0.4,6c0.4-0.3,1.2,0,1.8-0.1
			c1.2-2.4-0.3-6.9,2.3-7.8c1.2,2.1-0.5,4.9-0.4,9.3c0.4,0,0.7,0,1.1,0c1-2.2-0.9-6.2,1.2-7.5c1.7,1.1,0.1,2.9,1.1,4
			c1.6-5.2-0.3-10.7-3.2-13.5c-22,0.7-45.1-0.6-67.7,0.2C42.6,47.6,44.1,55.4,42.1,60.9z M98.4,56c0.3-1.9-0.3-3.4,0.5-5.1
			c0.4,0,0.9,0,1.1,0.2c0.3,2.5,0.7,5.2-0.7,7.6C97.7,58.7,98.2,57.4,98.4,56z M95.4,52.4c0.3,0,0.6,0,0.9,0c0.6,2.2,1,4.4-0.4,6.5
			c-0.2,0-0.5,0-0.7,0c-0.8,0-0.2-1.1-0.2-1.9C95.1,55.3,94.5,54.5,95.4,52.4z"/>
		<path class="st0" d="M33.8,53.3c0.9-0.5,1.2-1.4,2.5-1.2c3.6,0.5-1.3,7.6,1.8,9c3.3-3.8,1-16.2-3.7-15.8c-2.9,0.3-2.6,5.9-2.7,9.6
			c-1.9,2.2-1.1,8.7-0.2,11.3C31.1,60.8,32.6,57.2,33.8,53.3z"/>
		<path class="st0" d="M35.9,97.8c-1.1,4.2-4.2,7.3-5,11.2c0.9-1.1,1.4-2.4,2.1-3.7c0.6-1.2,1-3,2.5-3.4c1.2,1,0.1,2.5-0.4,3.4
			c-2.4,4.6-6.1,8.1-6.6,13.8c2.7-4,4.9-8.6,7.8-12.4C36.6,103.4,36.3,100.6,35.9,97.8z"/>
		<path class="st0" d="M141.5,158.7c0.1,0.4,1.1-0.6,1.6-1.1c0.6-0.6,1.2-1.4,1.8-1.9c1.1-1.1,2.9-3.5,4.2-1.8
			c-2.4,3.1-5.4,5.6-8.5,8c3.7-0.9,7-2,8.9-4.8c0.1-2.9-0.3-5.3-0.9-7.4C146,152.5,144.3,156.2,141.5,158.7z"/>
		<path class="st0" d="M28.8,159.2c-0.4-0.3-0.4-0.9-0.4-1.6c2.2-3,5.3-6.1,6-9.9c-1.4,3-4.6,4.3-5.5,7.8c-0.7,0.3-1.4,1.3-2.3,0.9
			c0.2,1.9,0.7,3.5,1.2,5c1-0.4,1.9-1.9,2.1-2.5C29.9,159.3,29.4,159.3,28.8,159.2z"/>
		<path class="st0" d="M145.9,144.5c-0.8-5.9-2.1-11.3-3.5-16.5c0.1-0.3,1.1-0.9,0.4-0.9c-0.7-0.6-2.1-0.6-3.2-0.9
			c-1.1-0.3-2.2-0.9-2.8-0.5c0.3,5.7,2.3,12.3,3.2,18.2c0.2,1.3,0.2,3.1,0.4,4.6c0.1,1.2,1.2,3.3-0.5,3.7c-1.4-1.5-1.2-3.9-1.4-6
			c-0.7-6.4-3.1-13.7-3.5-19.3c-0.2-2,0.6-2.4,0.7-3.5c-2.8,2.1-4.6,5.2-7.1,7.6c-0.1,0.4,1.4-0.6,1.8-0.9c1.3-1.1,2.4-3.5,4.1-3.2
			c0.7,1.7-1.1,2.5-1.8,3.5c0.9,0.2,1.1,0.9,1.4,1.6c3.1,6.4,2.8,16.5,4.3,24.8c3.3-2.6,6-7.5,8.9-11.2
			C146.8,145.2,145.9,145.3,145.9,144.5z M143.8,146.3c-1.2-0.6-1.5-2.5-1.8-3.9c-0.3-1.5-0.6-3.2-0.9-4.8c-0.6-3.3-1.4-6.7-1.8-9.7
			c0.1-0.2,0.3-0.3,0.4-0.5c1.6-0.4,1.8,2.6,2.1,4.3c0.8,3.6,1.2,6.6,1.9,10.1C144.1,143.3,145.3,145.4,143.8,146.3z"/>
		<path class="st0" d="M135.6,149.9c-0.7-6.9-1.8-14.2-4.4-18.4c-1.3,0.5-0.9,1.7-0.7,2.8c1.3,7.2,2.9,14.4,3.5,22.1
			c0.1,1,0.9,3-0.7,3.4c-1.2-0.4-0.8-1.9-0.9-2.8c-0.9-7.9-2.5-15.9-3.7-23.2c-8.2,6-17.2,11.6-25,17.9c-1.2,1-2.4,2.4-3.7,3.4
			c-1.2,0.9-2.9,2.4-4.6,1.9c-0.1-1.6,1.7-2.3,2.7-3c1.1-0.8,2.2-1.6,3.2-2.5c6.1-5.6,13.3-9.7,20-14.5c0.3-0.3,0-1.2,0.4-1.4
			c5-4.4,8.7-10.1,13.6-14.5c0.1-0.9-0.2-1.3-0.2-2.1c-6.6,6.4-13.1,13.6-20,19.5c-0.8,0.7-1.7,2.2-3,1.6c0-2.8,2.9-3.5,4.4-5
			c5.9-5.7,11.8-11.9,17.5-17.9c0-0.2-0.1-0.4-0.4-0.4c-2.8,1.6-5.6,3.9-8.7,6c-2.8,1.9-5.9,3.9-8.1,6c-2.3,2.2-4.7,5.4-7.6,7.4
			c-2.9,2.1-6,4.3-8.5,6.5c-1.3,1.2-2.3,2.6-3.7,3.7c-2.9,2.4-5.3,4.3-8.1,6.9c-1.3,1.2-3.6,2.9-3.7,3.9c-0.2,1.7,1.8,5.4,2.7,7.1
			c1.3,2.5,2.3,4.4,3.7,6c1.6,1.7,4.8,3.2,7.8,5c6.4,3.7,16.5,5.8,22.8,1.1c0.4-0.4,0.4-1.3,0.7-1.8c5-5.6,10.3-11,14.9-17
			C135.2,157.2,135.9,152.7,135.6,149.9z M110.5,157.8c-0.3,0-0.6,0-0.9,0c-0.6-0.6-0.7-3,0.9-2.5C111,155.7,111,157.5,110.5,157.8z
			 M113.7,161.9c-1.4,0.1-1.2-6-1.2-7.5c-0.2-3.9-0.1-5,0-7.8c0.1-0.2,0.3-0.6,0.4-0.6c0.3,0,0.6,0,0.9,0c0.8,2.2,0.3,5,0.7,8.9
			C114.6,157,114.8,161.8,113.7,161.9z M117.9,168.6c-1.5,0.1-1-5.2-1.1-7.3c-0.2-5.4-1-11.9-1.2-16.8c0.1-0.3,0.3-0.4,0.5-0.5
			c2-0.2,1.5,5.8,1.8,8.1c0.4,3.3,0.6,6.7,0.7,8.9C118.7,162.7,119.1,168.5,117.9,168.6z M122.5,168.6c-1.6-0.9-1-3-1.1-4.7
			c-0.4-6.6-1.6-13.1-1.9-20c0.1-0.3,0.3-0.1,0.5-0.1c0.1,0,0.1,0,0.2,0c1.6,0,1,1.6,1.1,2.6c0.5,5.2,1.7,11.7,1.9,17.6
			C123.3,165.7,123.8,167.5,122.5,168.6z M126.8,167.2c-1.4,0.1-1-2.5-1.1-3.9c-0.4-7.5-2-17.1-3-24.4c0.1-0.3,0.3-0.4,0.5-0.5
			c1.8-0.1,1.8,4.5,2.1,6.5c1,5.9,1.9,12.2,2.1,19.1C127.5,165.3,127.9,167.2,126.8,167.2z M130,162.3c-1.3,0.1-0.9-2-1.1-3.5
			c-0.2-2.7-0.6-6.3-1.2-9.6c-0.7-3.5-1.5-6.4-1.4-9.6c0.1-0.3,0.3-0.2,0.5-0.2c0.1,0,0.1,0,0.2,0c1.7,2.2,1.3,3.4,1.6,5.5
			c0.6,3.9,1.4,7.6,1.9,12.1C130.7,158.8,131.2,162.2,130,162.3z"/>
		<path class="st0" d="M81.3,171.3c0.7-0.1,1.2-0.3,1.1-1.2C81.4,169.9,81.2,170.5,81.3,171.3z"/>
		<path class="st0" d="M171.8,95.5c-4.3,2.1-7.3,6-11.2,9.2c-3.9,3.3-8.2,5.9-10.6,9.4c1.7,0.8,3.3,1.7,5,2.5
			c4.9-4.1,12-8.6,17.2-12.9c2-1.7,4.8-5.2,4.1-8.5C174.5,94.5,173.1,94.8,171.8,95.5z M170,102.4c-3.7-0.9,1.4-6.9,3.7-3.7
			C173.4,100.4,172.1,102.9,170,102.4z"/>
		<path class="st0" d="M143.3,115.7c0.4,0.6,0.5,1.5,0.5,2.3c0.2,2.6-0.2,6.2,1.1,7.8c0.1-1.1-0.1-2.2-0.2-3.2
			c-0.1-2.2-0.7-4.5,0.9-5.5c1.9,1.7,0.1,7.5,1.6,9.7c0.5-2.6-1.3-5.8,0.4-7.3c2.3,1.4,0.9,5.5,1.6,8.3c1.5,1.1,6.3,3.4,4.3,5.5
			c-1.9-0.8-2.6-2.8-4.6-3.5c-0.2,1.4,2.4,7.1,0.7,7.4c-1.5,0.2-1.5-2.5-1.8-3.7c-0.4-1.9-0.8-3.1-0.9-4.8c-1.2-0.1-1.7-0.9-2.7-1.2
			c1.4,5.5,2.9,10.8,3.5,17c2-1.4,3.2-3.6,5-5.7c1.5-1.8,4-3.7,5.1-5.5c1.5-2.4,1.3-5.7,1.9-9c-4.1-4.2-9.9-6.8-16.1-8.9
			C143.5,115.5,143.3,115.5,143.3,115.7z M150.9,123.7c0.7,1.3,0.6,2.1,0,4.3c-0.3,0-0.6,0-0.9,0
			C149.5,125.8,148.7,123.7,150.9,123.7z"/>
		<path class="st1" d="M127.5,27.3c-1.6-1.4-4.7,1.8-3.7,3.5C125.7,30.3,126.7,28.9,127.5,27.3z"/>
		<path class="st1" d="M125.5,33.8c-0.7,0.3-1.6,0.3-1.4,1.4c2.4,1.4,4.5-1.8,5.1-3.9C127.4,30.3,126.4,32.8,125.5,33.8z"/>
		<path class="st1" d="M124.1,39c1.9-0.5,3.5-1.4,4.1-3.2C126.8,34.6,123.1,37.1,124.1,39z"/>
		<path class="st1" d="M127,42.7c1-0.8,2.8-1.5,2.7-3.2c-0.3-0.2-0.6-0.5-1.2-0.4c-0.9,1-2.3,2.1-3.5,3c-0.6,0.5-2.2,0.9-1.4,2.3
			C124.8,44.8,126,43.5,127,42.7z"/>
		<path class="st1" d="M99.3,58.6c1.4-2.4,1-5.1,0.7-7.6c-0.2-0.2-0.6-0.2-1.1-0.2c-0.9,1.7-0.3,3.3-0.5,5.1
			C98.2,57.4,97.7,58.7,99.3,58.6z"/>
		<path class="st1" d="M95.3,58.9c0.2,0,0.5,0,0.7,0c1.4-2.2,0.9-4.4,0.4-6.5c-0.3,0-0.6,0-0.9,0c-0.9,2.2-0.3,3-0.4,4.6
			C95.1,57.8,94.5,58.9,95.3,58.9z"/>
		<path class="st1" d="M88,89.6c0.9-0.9,1.7-1.8,2.5-2.7c4.8-5.3,11-9.8,13.3-17.4c-0.3-0.2-0.5-0.5-1.1-0.4c-1.8,2-2.6,4.5-4.3,6.5
			c-3.4,4.4-7.8,8.8-11.7,12.6c-0.7,0.7-2.2,1.6-1.6,3C86.5,91.9,87.3,90.3,88,89.6z"/>
		<path class="st1" d="M95.3,71.6c-1.9-1.3-3.8,1.5-4.8,2.8c0.2,0.2,0.4,0.5,0.5,0.7C93.1,74.7,94.4,73.3,95.3,71.6z"/>
		<path class="st1" d="M91.2,80.4c1.3,0.5,2.5-0.8,3.4-1.6c1.9-1.6,4.3-3.2,4.6-6c-0.3-0.2-0.6-0.5-1.2-0.3c0,0.3-0.3,0.3-0.4,0.5
			c-0.3,0.2-0.5,0.6-0.5,1.1c-1.1,0.9-2.1,2-3.2,3C92.8,78,90.8,78.7,91.2,80.4z"/>
		<path class="st1" d="M100.4,82.6c1.4-1.6,3.1-3.4,3.4-5.5c-0.3-0.2-0.5-0.5-1.1-0.4c-3.7,4.7-7.7,9.4-12.2,13.1
			C89,91,87.1,92,86.4,93.9c2,1.1,3.6-1.5,5-2.7C94.7,88.4,97.6,85.6,100.4,82.6z"/>
		<path class="st1" d="M97.4,89.6c-1.1,1.1-2.3,2.1-3.5,3c-1.1,0.9-2.8,1.9-2.8,3.5c1.7,0.6,3.1-1.4,4.2-2.3
			c2.9-2.3,4.9-4.5,7.1-7.3c1.1-1.4,2.5-2.6,2.8-4.2c-0.3-0.3-0.7-0.4-1.4-0.4C101.7,84.6,99.8,87.2,97.4,89.6z"/>
		<path class="st1" d="M97.7,96.2c-0.9,0.8-2.9,1.3-2.8,3c1.6,0.9,2.9-0.9,3.9-1.8c1.1-1,2.3-2.1,3.4-3c2.2-2,4.8-4.3,5.8-7.1
			c-0.3-0.2-0.6-0.5-1.2-0.3C103.8,90.2,100.8,93.4,97.7,96.2z"/>
		<path class="st1" d="M103.2,96.4c-1.5,1.2-3.8,2.3-4.4,4.4c1.2,0.9,2.5-0.6,3.4-1.2c1-0.7,2-1.8,2.8-2.5c1.8-1.5,4.8-2.8,5.1-5.5
			c-0.3-0.2-0.6-0.5-1.2-0.4c-0.3,0.4-0.6,0.8-0.9,1.2C106.3,93.7,104.9,95,103.2,96.4z"/>
		<path class="st1" d="M105.2,100.6c-1,0.8-2.6,1.1-2.1,2.5c1.8,0.7,3.3-1.3,4.4-2.3c1.3-1.2,3.2-2.4,3.4-4.3
			C108.7,95.5,106.9,99.1,105.2,100.6z"/>
		<path class="st1" d="M132.5,106.6c1.6-0.7,3.2-1.7,4.6-2.5c3-1.6,7-3.2,7.8-6.6c-0.3-0.2-0.5-0.5-1.1-0.4c-2.8,3-8.7,6.4-12.8,8.1
			c-1.2,0.5-3.4,0.4-3.7,2.1C128.9,108.6,130.9,107.3,132.5,106.6z"/>
		<path class="st1" d="M170,102.4c2.1,0.5,3.4-2,3.7-3.7C171.4,95.4,166.3,101.5,170,102.4z"/>
		<path class="st1" d="M106.4,106.5c1,0.8,2-0.5,3-1.2c1.5-1.1,3.4-2,3.5-4.1c-0.3-0.2-0.6-0.5-1.2-0.4
			C110.5,103.2,107,103.4,106.4,106.5z"/>
		<path class="st1" d="M142.2,103.6c0,0.2-0.3,0.2-0.4,0.4c-2.2,1.7-5.2,2.8-8,4.1c-2.1,0.9-5.1,1.5-5.7,3.9
			c1.3,0.8,2.7-0.6,3.9-1.2c1.3-0.7,2.8-1.2,4.3-1.8c2.6-1.1,6.3-2.2,7.1-5C143.1,103.7,142.8,103.5,142.2,103.6z"/>
		<path class="st1" d="M96.3,129.8c-0.8,0.7-2.5,1.3-2.1,2.7c1.1,0.7,2.4-0.4,3.2-1.1c0.9-0.7,1.8-1.6,2.7-2.3
			c4.5-3.9,9.5-7.6,14-11.2c0.8-0.6,2.5-1.4,1.9-2.8c-1.4-0.7-2.2,0.9-3,1.6C107.5,121.3,101.6,125.5,96.3,129.8z"/>
		<path class="st1" d="M93.8,135.9c-0.9,0.7-2.7,1.3-2.8,2.8c1.5,1,2.8-0.7,3.7-1.4c5.7-4.5,11.4-8.6,17-12.9
			c2.2-1.7,5.5-2.8,6.2-5.8c-0.3-0.2-0.4-0.5-1.1-0.4c-2,2.1-4.5,3.6-6.9,5.5C104.6,127.9,99,131.8,93.8,135.9z"/>
		<path class="st1" d="M150.9,127.9c0.6-2.1,0.7-3,0-4.3c-2.2,0.1-1.4,2.1-0.9,4.3C150.3,127.9,150.6,127.9,150.9,127.9z"/>
		<path class="st1" d="M141.8,131.6c-0.4-1.6-0.5-4.6-2.1-4.3c0,0.3-0.3,0.3-0.4,0.5c0.3,3.1,1.2,6.5,1.8,9.7
			c0.3,1.6,0.5,3.3,0.9,4.8c0.3,1.4,0.5,3.3,1.8,3.9c1.5-0.9,0.4-3,0-4.6C143,138.2,142.7,135.2,141.8,131.6z"/>
		<path class="st1" d="M125.4,144.9c-0.3-2-0.4-6.7-2.1-6.5c-0.3,0.1-0.4,0.3-0.5,0.5c1,7.4,2.6,16.9,3,24.4c0.1,1.4-0.3,4,1.1,3.9
			c1.1-0.1,0.8-2,0.7-3.2C127.2,157.1,126.3,150.8,125.4,144.9z"/>
		<path class="st1" d="M128.6,144.9c-0.3-2.1,0.1-3.3-1.6-5.5c-0.1,0-0.1,0-0.2,0c-0.3,0-0.4-0.1-0.5,0.2c-0.1,3.2,0.7,6.1,1.4,9.6
			c0.7,3.4,1,6.9,1.2,9.6c0.1,1.5-0.3,3.7,1.1,3.5c1.2-0.1,0.8-3.6,0.5-5.3C129.9,152.5,129.2,148.8,128.6,144.9z"/>
		<path class="st1" d="M121.3,146.4c-0.1-1,0.5-2.6-1.1-2.6c-0.1,0-0.1,0-0.2,0c-0.3,0-0.4-0.1-0.5,0.1c0.4,6.9,1.6,13.4,1.9,20
			c0.1,1.7-0.5,3.8,1.1,4.7c1.2-1,0.8-2.9,0.7-4.6C123,158,121.8,151.6,121.3,146.4z"/>
		<path class="st1" d="M117.9,152.2c-0.3-2.3,0.2-8.4-1.8-8.1c-0.3,0.1-0.4,0.3-0.5,0.5c0.2,4.9,1,11.4,1.2,16.8
			c0.1,2.1-0.5,7.4,1.1,7.3c1.2-0.1,0.8-6,0.7-7.6C118.5,158.8,118.3,155.5,117.9,152.2z"/>
		<path class="st1" d="M113.7,146c-0.3,0-0.6,0-0.9,0c0,0-0.3,0.4-0.4,0.6c-0.1,2.8-0.2,4,0,7.8c0.1,1.4-0.1,7.6,1.2,7.5
			c1.2-0.1,0.9-4.9,0.7-7C114,151,114.5,148.1,113.7,146z"/>
		<path class="st1" d="M72.2,152.2c-1.6,2-1.8,6-2.5,9.4c-0.6,3.2-1.9,6.1-1.6,8.5c1.8,0.2,2-2.1,2.3-3.4c1.2-4.5,2-10.1,2.7-14.3
			C72.9,152.2,72.6,152.1,72.2,152.2z"/>
		<path class="st1" d="M66.9,154.7c-0.3,0-0.4-0.1-0.5,0.2c-0.7,3.7-1.4,8.7-2.5,12.7c-0.2,0.8-1.5,3.4,0,3.6c1.1,0.2,1.5-2,1.8-3.2
			c1.1-4.4,2.4-11.1,1.9-13.3C67.4,154.7,67.1,154.7,66.9,154.7z"/>
		<path class="st1" d="M45.8,154.8c-0.9,1.9-1.6,4.5-2.5,6.6c-1.1,2.5-3.3,4.8-2.8,7.4c1.8-0.1,2.4-2.4,3-3.7
			c1.6-3.5,3.4-7,3.7-10.6c-0.2-0.2-0.6-0.2-1.1-0.2C46.1,154.5,45.9,154.6,45.8,154.8z"/>
		<path class="st1" d="M109.6,157.8c0.3,0,0.6,0,0.9,0c0.5-0.4,0.5-2.1,0-2.5C108.9,154.8,109,157.3,109.6,157.8z"/>
		<path class="st1" d="M74.9,156.8c0,0.3-0.3,0.3-0.4,0.5c-0.7,3.1-1.7,6.9-2.5,9.9c-0.3,1-1,2.7,0.4,3.2c1.3-0.2,1.1-1.9,1.4-2.8
			c0.9-3.4,2.2-7.2,2.1-10.6C75.7,156.7,75.3,156.7,74.9,156.8z"/>
		<path class="st1" d="M78.4,158.4c-0.7,2.9-1.9,6.3-2.3,9.6c-0.1,1-0.8,2.7,0.5,3.2c1.4-0.2,1.1-1.9,1.2-2.8
			c0.5-3.6,2.1-7,1.9-10.3c-0.2-0.2-0.6-0.2-1.1-0.2C78.7,158.1,78.5,158.1,78.4,158.4z"/>
		<path class="st1" d="M171.2,91.9c-8.5,3.3-15.4,14-22.3,17.4c-0.2-7.7-0.2-13.3-0.7-20.2c-0.7-9.3-1.7-19.8-4.2-27.5
			c-0.9-2.8-1.7-5.8-2.8-7.8c-2.4-4.5-7-8.8-7.8-14.5c-0.5-3.5,0-7.7-0.4-11.7c-0.1-1.4-0.7-3.3-0.4-4.6c0.3-1.1,1.5-2.2,1.8-3.9
			c0.2-1.7,0-3.2-0.2-5.1c0.7-0.9,1.3-2.4,0.9-4.1c-1.1-3.8-12.8-3.2-17.7-2.8c-3.1,0.2-7.9,1.3-9,3.2c-0.4,0.6-0.2,1.5-0.5,2.3
			c-0.3,0.9-0.7,0.9-0.9,2c-0.2,1.6,0,2.9,0.2,3.7c0.5,2,2.2,2.8,2.7,4.8c0.4,1.6,0.5,4.2,0.7,6.4c0.2,3.3-0.1,5.7-1.1,7.6
			c-0.4,0.8-2.3,3.5-2.8,3.7c-1.9,0.7-5.3-0.2-7.6,0c-3.4,0.3-8,0.7-12.2,0.4c-7.2-0.5-16.1-0.3-24.6-0.4c-7.9,0-15.8-0.5-22,0
			c-2.5,0.2-6.3,0.6-8.2,1.6c-2.5,1.3-3.2,5.6-4.4,8.1c-0.5,1-1.3,3.2-1.2,4.1c0,1,0.7,1.5,0.9,2.7c0.3,2-0.2,4.1,0,6
			c0.4,5.2,2.8,9.3,3.2,14.3c0.2,2.7,0.6,5.7,0.4,8.5c-0.4,5.4-1.5,11.1-2.3,16.6c-0.8,5.3-2.5,10.3-3.5,15.6
			c-1.6,8.4-2.8,17-3.4,25c-0.1,1.4-0.1,3,0,4.4c0.7,8.4,2.9,14.3,5.7,22.3c2.6,1.9,6.7,1.6,11.2,2.3c2.5,0.4,4.9,1.1,7.8,1.4
			c2.6,0.3,5.3,0.9,8.1,1.1c4.2,0.3,9,0,13.6,0c4.7,0,9.7,0.5,13.6,0c1.2-0.1,2.5-0.7,3.9-0.9c1.3-0.2,2.8-0.2,3.7-1.1
			c5.5,4.5,13.3,9.1,22.1,9.7c1.3,0.1,3.1,0.1,4.4,0c2.8-0.3,7.9-2.2,9-3.5c0.5-0.5,0.6-1.8,0.9-2.3c0.8-1.4,3.2-3.6,4.8-5.3
			c1.6-1.7,3.4-4.6,5-5.1c1-0.3,2.3-0.3,3.4-0.5c5.6-1.4,12.5-2.6,13.8-7.4c1.2-4.4-1.5-8.9-0.5-12.9c0.3-1.5,3-4.2,4.1-5.5
			c3.3-3.7,5.5-5,6.7-10.6c0.3-1.5,0.7-4.4,0.5-5.5c-0.4-2.4-3.2-3.8-5-5.3c6.9-6.7,16.9-10.3,21.3-19.7
			C181.4,92.2,175.8,90.2,171.2,91.9z M131.6,11.2c-2.6,2-7.4,3-11.9,3.4c-2.1,0.2-4.3,0.1-6.2-0.4c-0.3-0.9-0.8-1.6-1.2-2.3
			C116.8,10.1,126.2,9.9,131.6,11.2z M110.5,16.8c6.1,2.4,15.1,0.5,20.6-1.1c0.1,1.6-0.2,2.8-0.5,3.9c-4.3,0-12.7,1.8-17.2,0.9
			C111.9,20.3,110.8,18.5,110.5,16.8z M112.6,39c1.7-3.8,1.5-10.3,0.7-15.1c5.6,0.3,11.4-0.3,15.9-0.5c0.5,5.4,0.1,11.8,0.7,16.8
			c0.1,1.1,1.2,2.5,1.1,3.5c-0.2,2.3-5,4.1-6.2,5.7c0,0.1,0.2,0.2,0.2,0.4c1.5,1.5,2.9-0.4,3.9-1.2c1.2-1,2.3-2.1,3.2-2.5
			c2,1.9-1.9,4.6-3.9,5.8c-0.6,0.4-2.9,0.9-2.7,1.9c0.4,2,3.8-0.8,4.4-1.2c1.6-1.2,2.7-2,3.9-3c0.8,0.5,1,1.4,1.6,2.1
			c-1.9,2.3-4.5,4.1-7.4,5.7c-0.8,0.4-2.2,0.9-2.1,2.1c0.9,1.2,2.2-0.1,3-0.5c2.7-1.5,5.5-3.7,7.8-5.5c0.3,1,1.1,1.5,1.4,2.5
			c-1.9,1.8-5.6,4.7-7.8,5.7c-0.8,0.3-2.7,0.2-2.5,1.4c0.4,2.4,5.4-1.3,5.8-1.6c2.2-1.4,3.5-2.2,5.3-3.4c0.2,1,0.7,1.7,0.9,2.7
			c-2.7,2-5.7,4.4-9.4,6c-0.9,0.4-3.4,0.7-3.4,1.8c0,1.8,2.8,0.3,3.5,0c3.6-1.5,7.1-3.8,9.7-6c0.3,1.2,1.5,2.7,1.2,3.7
			c-0.3,1.1-5.2,3.4-6.4,4.1c-1.1,0.7-2.2,1.3-3.2,2c-1.1,0.7-2.8,1-2.7,2.5c1.1,1.3,2.3-0.3,3.2-0.9c2.9-1.9,6.3-3.8,9.6-5.3
			c1.3,2.9-0.9,4.1-2.8,5.3c-2.5,1.6-4.7,3.1-7.4,4.3c-1.4,0.6-3.1,0.6-3.9,1.8c0.7,2,2.9,0.4,3.9,0c4-1.6,7.5-4.2,11-6
			c1.4,2.4-1.4,3.5-3.2,4.6c-2.6,1.5-5,2.6-8,4.1c-1.1,0.5-3.7,1.6-3.5,2.5c0.3,1.5,3.1,0,4.1-0.5c3.8-1.9,7.8-4.2,11.3-6.2
			c1,2.7-1.1,3.8-3,5.1c-3,2.1-7.8,5.6-11,6.7c-0.9,0.3-2.5,0-2.7,1.1c1.1,2,3.6,0.4,4.8-0.2c4.3-2.2,8.3-5.6,12.4-7.8
			c-0.1,1.2,0.5,1.8,0.4,3c-3.5,2.7-7.9,4.3-11.9,6.7c-1.2,0.7-3.2,1.2-3.4,2.8c1.3,1.2,2.9-0.4,3.9-1.1c3.5-2.2,7.9-4.1,11.5-6.2
			c0,0.9,0.3,1.5,0.2,2.5c-3.6,3.2-8.1,6.7-13.3,8.3c-0.8,0.3-2.1-0.1-2.5,1.1c0.9,2,3.2,0.4,4.3,0c4.1-1.7,8.2-4.2,11.5-6.6
			c0.2,4.1,0.7,7.8,0.7,12c0,0.8-0.5-0.1-1.1,0.2c-3.2,3.3-7.9,5.1-12.4,7.1c-1.9,1.8-4.3,3.3-6.6,4.8c-1.5-23-12.4-36.6-18.1-55.4
			c9.8,2.6,7.7-11.3,5.5-16.3c-0.7-1.6-2.5-3.5-2.5-4.4C110.5,40.6,112.3,39.7,112.6,39z M141.5,115.9c0.8,2.4,0.8,6.7,0.9,9.2
			c-0.7-0.1-0.8-0.7-0.9-1.1C140.7,121.3,141.8,118.5,141.5,115.9z M139.9,111.6c1.9-1.2,4.2-2.1,5.5-3.9
			C145.3,110.1,143.4,112,139.9,111.6z M138.8,118c-0.1-0.3-0.3-0.4-0.5-0.5c-1.4-0.2-1,1.2-1.2,2.1c-0.3-0.6-0.3-1.5-0.3-2.3
			c0.8-0.4,2.2-1.1,3-0.9c-0.1,3-0.3,4.9,0.2,8c-1.6,0.2-0.9-2.1-0.9-3.4C139,119.9,138.9,119.3,138.8,118z M107.3,44.1
			c2.9,2.8,4.8,8.3,3.2,13.5c-0.9-1.1,0.6-2.9-1.1-4c-2.2,1.3-0.2,5.3-1.2,7.5c-0.4,0-0.7,0-1.1,0c-0.1-4.4,1.6-7.2,0.4-9.3
			c-2.6,0.9-1.1,5.5-2.3,7.8c-0.6,0.1-1.3-0.2-1.8,0.1c-0.6-1.9,0.2-3.8,0.4-6c0.1-1,0.3-2.8-0.7-2.9c-1.5-0.1-1.6,7-1.6,8.8
			c-2.6,0.8-6.3,0.4-9.6,0.5c0-0.7,0.4-1,0.5-1.6c-0.1-1.9,0.2-3,0.2-4.6c0-0.6,0.1-3.8-1.4-3.5c-1.3,0.2-0.3,4.3-0.3,6.3
			c-0.1,1.3-0.5,4.3-0.5,4.3c-0.8,0-1.7,0-2.5,0c0.2-2.2,1.2-5.8,0.9-7.9c-0.1-0.5,0-1.7-0.9-1.8c-0.9-0.2-1,1.2-1.1,1.7
			c-0.5,2.3,0.2,5.8-0.9,7.9c-0.8,0-1.5,0-2.3,0c-0.4,0,0.3-1.2,0.5-1.8c0.4-1,0.8-3.1,0.9-4.3c0.1-1.1,0.4-2.9-0.7-3.3
			c-1.9,1.1-0.9,5.4-2.1,7.2c-0.2,0.8,0.3,0.9,0.3,1.4c-0.7,0-1.4-0.1-2-0.2c0.3-0.8,0.5-1.8,0.6-2.6c0.4-2.2,0.7-5.1,0-5.1
			c-0.3,0-0.6,0-0.9,0c-0.4,1.9-1.2,5.2-1.1,7.6c-0.9-0.1-1.7-0.1-2.8,0c0-0.7,0.4-1,0.5-1.6c0-1.5,0.2-2.9,0.2-4.1
			c0-1.2,0.3-2.8-0.9-3.7c-1.4,0.4-1.1,2.3-1.1,3.4c0,1.9,0,3.9-0.2,6c-1.2,0.1-1.9-0.4-3.2-0.3c1.1-1.6,1.3-5.4,1.2-7.6
			c0-0.9,0.3-2.4-0.7-2.5c-0.8-0.1-0.9,0.7-1.1,1.4c-0.3,1.7,0.5,5.1-0.7,6.9c0.1,0.4-0.2,1.2,0.2,1.2c-0.8,0.4-2.4,0.1-3.5,0.2
			c0.7-1.7,2.3-5.8,0.5-7.3c-1.9,0.9-0.6,4.4-1.9,6c0,0.5,0,0.9,0.4,1.1c-0.4,0.4-1.6,0.1-2.3,0.2c0.4-2.1,1.7-5.2,0-6.6
			c-1.4,0.1-0.9,3-1.1,4.1c-0.2,1.3-0.6,2.1-0.7,4.3c-1,0-2,0-3,0c1-2.2,1.8-6.9,0.2-8.6c-2.2,1,0,5.4-1.9,7
			c-0.1,0.6,0.3,1.5,0.2,1.5c-0.7,0-1.4,0-2.1,0c0.8-2.2,0.7-4.5,0.7-6.4c0-0.7,0.3-2.7-0.7-2.7c-2,0-0.2,5.3-1.6,6.9
			c-0.1,0.5,0.7,1,0.4,1.1c-1-0.1-1.9,0-2.8,0c1.6-0.3,1.6-5.8,0.9-7.6c-0.3,0-0.6,0-0.9,0c-0.8,2.2-0.3,4.6-1.1,7.3
			c0.3,0.2,0.6,0.3,0.8,0.4c-1.1,0.1-2.2,0.2-3.3,0.3c-0.4-2.8,1.8-6.3-0.2-8c-1.4,0.2-0.9,2.1-1.1,3.2c-0.2,1.8-0.7,3.6-0.9,5
			c-1.1,0.2-2.2,0.3-3.4,0.5c2-5.5,0.5-13.3-2.5-16.7C62.2,43.5,85.3,44.8,107.3,44.1z M31.7,54.9c0-3.7-0.3-9.3,2.7-9.6
			c4.7-0.5,7,12,3.7,15.8c-3.1-1.5,1.9-8.6-1.8-9c-1.2-0.2-1.5,0.8-2.5,1.2c-1.2,3.8-2.7,7.4-2.3,12.9
			C30.6,63.6,29.7,57.1,31.7,54.9z M34.9,87.9c0.4,0.5,0.3,1.5,0.5,2.1c-1.5,1-1.1,3.9-2.1,5.5C32.8,92.6,34,90,34.9,87.9z
			 M32.2,102c-0.2-0.2,0.1-1.6,0.5-1.8C33.1,100.7,32.3,101.5,32.2,102z M35.2,105.2c0.4-0.8,1.6-2.4,0.4-3.4
			c-1.4,0.4-1.8,2.2-2.5,3.4c-0.7,1.3-1.3,2.7-2.1,3.7c0.8-3.9,3.9-7,5-11.2c0.3,2.8,0.7,5.6,0.5,8.9c-2.9,3.8-5.1,8.4-7.8,12.4
			C29.1,113.4,32.8,109.8,35.2,105.2z M36.3,109.7c0.8,1.4,0.7,3.7,0.9,5.7c0.2,0.7-0.9,0.1-1.1,0.5c-2.8,4.6-6.1,8.6-9,13.1
			C27.2,120.3,33.7,116.5,36.3,109.7z M26.2,133.6c3.5-5.5,7.5-10.6,11-16.1c0.8,2.1,0.8,5.3,0.5,8c-0.4,0.4-0.5-0.4-1.2-0.2
			c-2.6,2.7-4.6,6.5-6.9,9.9c-0.6,0.9-2.4,2.2-1.1,3.4c2.4-1.1,3.2-3.8,4.6-5.8c1.4-2,3.1-3.9,4.3-6c0.4,1.6,0.1,4,0.2,5.8
			c-0.4,0.2-1,0.2-1.2,0.5c-1.5,2.8-3.6,4.7-6.4,7.6c-1.5,1.6-4.5,4.2-4.3,5.9c0.2,1.7,2.8,0.8,2.5-1.2c2.9-3.4,6.3-6.3,8.9-9.9
			c0.4,0.9-0.4,2.1-0.4,3.2c-2.8,3-5.9,6.4-8.9,9.7c-0.8,0.9-2.6,2.4-1.2,3.7c1.3-0.2,1.8-1.7,2.5-2.5c2.2-2.5,4.6-5.1,7.1-7.6
			c-0.3,1-0.3,2.3-0.7,3.2c0,0.8-0.4-0.4-1.1,0c-2.6,3.3-5,6.8-8.1,9.6C24.5,148.2,24.9,140.2,26.2,133.6z M27.9,161.4
			c-0.6-1.5-1.1-3.1-1.2-5c0.9,0.4,1.6-0.6,2.3-0.9c0.9-3.5,4.1-4.8,5.5-7.8c-0.8,3.8-3.9,6.9-6,9.9c-0.1,0.7,0,1.3,0.4,1.6
			c0.6,0,1.1,0,1.2-0.4C29.9,159.5,28.9,160.9,27.9,161.4z M81.3,171.3c0-0.8,0.2-1.4,1.1-1.2C82.5,171,82,171.2,81.3,171.3z
			 M79.3,172.1c-6.3,0-12.6,0-18.9,0c1.6-6.5,3.7-12.5,4.4-18.5c0.2-1.6,0.5-3.7-0.7-4.8c-1.6,0.6-0.9,2.4-1.1,3.8
			c-0.5,5.7-2.5,12.4-3.9,17.4c-0.2,0.5-0.2,2,0,2c-1.2,0-2.5,0-3.7,0c1.9-4.4,3.4-9.1,4.6-14.3c0.3-1.5,1.3-3.9-0.2-5.1
			c-1.6,0.1-0.9,1.8-1.1,2.8c-0.8,4.6-2.6,9.6-4.3,13.4c-1.2,0.3-0.8,3.1-2.7,2.1c-0.2-1.1,0.6-2.6,1.1-4.1c0.9-2.7,1.7-5.8,2.1-9.2
			c0.2-1.4,0.9-3.6-0.5-4.4c-1.5,0.3-0.9,2.4-1.1,3.5c-0.5,4.8-2.4,9.7-3.5,14c-1.2-0.1-2.2-0.4-3.5-0.3c1.9-3.8,3-8.6,4.4-12.9
			c0.4-1.3,1.5-3,0.4-4.3c-1.6,0.3-1.7,2.6-2.1,3.9c-1.4,4.2-2.4,9.4-4.8,12.9c-2.8-0.1-4.7-1.3-7.6-1.2c1.2-1.9,1.9-4.8,2.8-7.4
			c0.4-1.3,1.7-2.9,0.3-3.9c-1.7,0.7-2.1,3.6-2.7,5.3c-0.6,2-1.6,3.8-2.1,5.7c-1.2,0-2-0.4-3-0.5c2.7-5.5,3.8-11.9,5.8-18.2
			c0.8-2.3,1.1-4.9,1.6-7.4c0.4-2.5,1.2-5.1,1.4-7.4c0.3-3.2,0.1-6.9,0.4-9.7c0.6-6.1-1-11.6-1.4-17.2c-0.2-3-0.1-6.1-0.3-8.5
			c-0.7-6-0.5-12-1.4-17.5c-0.6-3.4-2.4-6.5-2.8-9.9c-0.3-2.4-0.4-5.2-0.4-8.3c0.7-0.4,1.5,0.9,2.5,1.1c1,0.2,2.2,0.1,3.4,0
			c3.4-0.3,7.4-1.1,10.6-1.4c1.2-0.1,2.4,0.1,3.5,0c4.8-0.4,9.2-1.1,14-0.7c1.4,0.1,2.8,0.6,4.3,0.7c1.7,0.1,3.5-0.1,5.3,0
			c8.6,0.7,17.3,0.7,25.2-0.4c3.2,7.8,6.5,16.8,10.1,24.8c1.2,2.7,2.8,5.2,3.7,7.8c1.9,5.2,3.1,11.5,4.1,18.2
			c0.3,1.9,1.3,4.9,0.9,6.4c-0.4,1.3-3,2.3-4.2,3.2c-1.6,1.1-2.7,2.2-3.9,3.4c-0.6,0-0.5-0.6-1.2-0.4c-7.1,5.9-15.6,11.2-23.4,16.8
			c-0.9,0.7-2.8,1.3-2.5,2.8c1.8,0.6,3.3-1.2,4.6-2.1c4.1-2.9,8.5-6.4,13.1-9c-7.1,6.5-15.5,13.2-22.7,20.2
			c-0.1,1.8-0.8,4.1,0.2,5.4C81.3,164.2,80.4,167.7,79.3,172.1z M107.7,133.2c-0.2-0.5,1-1,1.4-1.4
			C109.4,131.7,108,132.8,107.7,133.2z M122.9,174.7c-0.3,0.5-0.3,1.3-0.7,1.8c-6.3,4.7-16.5,2.6-22.8-1.1c-3-1.7-6.2-3.2-7.8-5
			c-1.5-1.6-2.4-3.5-3.7-6c-0.9-1.7-2.9-5.4-2.7-7.1c0.1-1,2.4-2.7,3.7-3.9c2.9-2.6,5.3-4.5,8.1-6.9c1.4-1.2,2.5-2.6,3.7-3.7
			c2.5-2.3,5.6-4.5,8.5-6.5c2.9-2.1,5.3-5.2,7.6-7.4c2.2-2.1,5.3-4.1,8.1-6c3.1-2.1,5.9-4.4,8.7-6c0.3-0.1,0.3,0.1,0.4,0.4
			c-5.7,6-11.6,12.2-17.5,17.9c-1.5,1.5-4.4,2.2-4.4,5c1.3,0.6,2.2-0.9,3-1.6c6.9-5.9,13.4-13.1,20-19.5c-0.1,0.8,0.3,1.2,0.2,2.1
			c-5,4.4-8.6,10.2-13.6,14.5c-0.3,0.3,0,1.2-0.4,1.4c-6.7,4.8-13.9,8.9-20,14.5c-1,0.9-2.1,1.7-3.2,2.5c-1,0.7-2.7,1.4-2.7,3
			c1.7,0.5,3.4-1,4.6-1.9c1.3-1,2.5-2.4,3.7-3.4c7.7-6.3,16.8-11.8,25-17.9c1.3,7.3,2.8,15.3,3.7,23.2c0.1,0.9-0.4,2.4,0.9,2.8
			c1.6-0.3,0.8-2.4,0.7-3.4c-0.7-7.8-2.3-14.9-3.5-22.1c-0.2-1.1-0.6-2.3,0.7-2.8c2.6,4.2,3.7,11.6,4.4,18.4
			c0.3,2.9-0.4,7.3,2.1,7.8C133.2,163.7,127.9,169.1,122.9,174.7z M138.1,156.9c-1.4-8.3-1.1-18.4-4.3-24.8
			c-0.3-0.6-0.6-1.4-1.4-1.6c0.6-1,2.4-1.8,1.8-3.5c-1.7-0.3-2.8,2.1-4.1,3.2c-0.4,0.3-1.9,1.3-1.8,0.9c2.5-2.4,4.3-5.5,7.1-7.6
			c-0.1,1.1-0.9,1.5-0.7,3.5c0.4,5.6,2.8,12.9,3.5,19.3c0.2,2.1,0,4.6,1.4,6c1.7-0.4,0.7-2.5,0.5-3.7c-0.2-1.5-0.2-3.3-0.4-4.6
			c-0.9-6-2.9-12.5-3.2-18.2c0.6-0.4,1.7,0.3,2.8,0.5c1.1,0.3,2.5,0.3,3.2,0.9c0.8,0-0.3,0.6-0.4,0.9c1.5,5.2,2.8,10.6,3.5,16.5
			c0,0.7,0.9,0.7,1.1,1.2C144.1,149.4,141.5,154.3,138.1,156.9z M140.6,161.9c3.1-2.4,6.1-4.9,8.5-8c-1.4-1.8-3.2,0.7-4.2,1.8
			c-0.6,0.6-1.2,1.4-1.8,1.9c-0.5,0.5-1.5,1.5-1.6,1.1c2.8-2.5,4.5-6.2,7.1-9c0.6,2.1,1,4.6,0.9,7.4
			C147.7,159.9,144.3,161,140.6,161.9z M159.7,124.4c-0.6,3.3-0.4,6.6-1.9,9c-1.1,1.8-3.6,3.7-5.1,5.5c-1.8,2.1-3,4.3-5,5.7
			c-0.7-6.2-2.2-11.5-3.5-17c1,0.3,1.5,1.1,2.7,1.2c0.1,1.7,0.5,2.9,0.9,4.8c0.3,1.3,0.3,4,1.8,3.7c1.7-0.3-0.9-6-0.7-7.4
			c2,0.7,2.7,2.8,4.6,3.5c2-2.1-2.7-4.4-4.3-5.5c-0.7-2.9,0.7-6.9-1.6-8.3c-1.6,1.5,0.2,4.6-0.4,7.3c-1.5-2.3,0.3-8-1.6-9.7
			c-1.6,0.9-1,3.3-0.9,5.5c0.1,1,0.3,2.1,0.2,3.2c-1.2-1.6-0.8-5.1-1.1-7.8c-0.1-0.8-0.1-1.7-0.5-2.3c0-0.2,0.2-0.1,0.4-0.2
			C149.9,117.6,155.6,120.1,159.7,124.4z M172.1,103.6c-5.1,4.3-12.3,8.9-17.2,12.9c-1.6-0.8-3.3-1.7-5-2.5
			c2.4-3.5,6.8-6.1,10.6-9.4c3.8-3.3,6.9-7.1,11.2-9.2c1.3-0.7,2.7-0.9,4.4-0.4C177,98.4,174.1,101.9,172.1,103.6z"/>
	</g>
</g>
<g id="SvgjsG5261" transform="matrix(1.9007391227505699,0,0,1.9007391227505699,-1.0263995069493852,117.98521913108893)">
	<path class="st1" d="M9.9,47.1v36.5H6.6V72.7c0-1.1-0.2-2.1-0.5-2.9c-0.3-0.8-1-1.9-2.1-3.3s-1.8-2.6-2.3-3.4s-0.8-1.7-1-2.6
		c-0.2-0.9-0.3-2-0.3-3.4v-10h3.2v10.4c0,1.3,0.2,2.3,0.5,3.1c0.3,0.8,1,1.9,2,3.3l0.4,0.5V47.1C6.6,47.1,9.9,47.1,9.9,47.1z
		 M15.5,50.4v13.3h2.9V67h-2.9v13.3h2.9v3.3h-6.1V47.1h6.1v3.3C18.4,50.4,15.5,50.4,15.5,50.4z M24,47.1v33.2h2.9v3.3h-6.1V47.1
		C20.7,47.1,24,47.1,24,47.1z M32.4,47.1v33.2h2.9v3.3h-6.1V47.1C29.2,47.1,32.4,47.1,32.4,47.1z M46.9,51.1v28c0,3-1.5,4.5-4.4,4.5
		h1.7H42c-1.6,0-2.7-0.4-3.4-1.2s-1-1.9-1-3.3v-28c0-1.4,0.3-2.5,1-3.3c0.7-0.8,1.8-1.2,3.4-1.2h1.9h-1.3
		C45.5,46.6,46.9,48.1,46.9,51.1z M43.7,51.5c0-0.5-0.1-0.9-0.3-1.2c-0.2-0.3-0.6-0.4-1.1-0.4c-0.5,0-0.9,0.1-1.1,0.4
		c-0.2,0.3-0.3,0.7-0.3,1.2v27.2c0,0.5,0.1,0.9,0.3,1.2c0.2,0.3,0.6,0.4,1.1,0.4c0.5,0,0.9-0.1,1.1-0.4c0.2-0.3,0.3-0.7,0.3-1.2
		V51.5z M64.7,47.1h-3.2l-1.4,23.3l-1.4-23.3h-3.2L54,70.4l-1.5-23.3h-3.2l3.1,36.5h3.2L57,60.3l1.5,23.3h3.2L64.7,47.1z"/>
</g>
<g id="SvgjsG5262" transform="matrix(1.9007389313370693,0,0,1.9007389313370693,63.47940939873612,117.75713087974883)">
	<path class="st1" d="M37.9,47c3,0,4,1.7,4,4.1v5.8c0,3.5-1.3,5.1-3.8,8.8c-1.5,2.2-3.2,4.3-3.2,6.9v10.9h-1.5V47
		C33.4,47,37.9,47,37.9,47z M40.4,57.3v-5.6c0-1.7-0.4-3.2-2.8-3.2h-2.7v19.4c0.6-1,1.4-2.2,2.5-3.6C39.3,61.4,40.4,59.7,40.4,57.3z
		 M53.3,50.8v28.9c0,2.4-1,4.1-4,4.1h-0.5c-2.9,0-3.9-1.7-3.9-4.5V50.4c0-2,1-3.7,4-3.7h0.5C52.3,46.7,53.3,48.4,53.3,50.8z
		 M51.8,79V51.4c0-1.7-0.4-3.2-2.8-3.2c-2.3,0-2.7,1.5-2.7,3.2V79c0,1.7,0.4,3.2,2.8,3.2C51.4,82.2,51.8,80.8,51.8,79z M63.3,47h1.5
		v32.7c0,2.4-1,4.1-4,4.1h-0.5c-2.9,0-3.9-1.7-3.9-4.5V47h1.5V79c0,1.7,0.4,3.2,2.8,3.2c2.3,0,2.7-1.5,2.7-3.2
		C63.3,79,63.3,47,63.3,47z M74.9,70h1.4v9.7c0,2.4-0.9,4.1-3.9,4.1h-0.5c-2.9,0-3.9-1.7-3.9-4.5V50.4c0-2,1-3.7,3.9-3.7h0.5
		c3,0,3.9,1.7,3.9,4.1v9.6h-1.4v-9c0-1.7-0.4-3.2-2.8-3.2c-2.3,0-2.7,1.4-2.7,3.2V79c0,1.7,0.4,3.2,2.7,3.2c2.4,0,2.8-1.5,2.8-3.2
		C74.9,79,74.9,70,74.9,70z M80.9,47h-1.4v36.5h1.4V72.6c0-2.6,1.7-4.7,3.2-6.9c0.9-1.4,1.7-2.4,2.3-3.4v21.2h1.4V47h-1.4v10.3
		c0,2.4-1.1,4.1-3,6.9c-1,1.5-1.8,2.6-2.5,3.6C80.9,67.8,80.9,47,80.9,47z"/>
</g>
</svg>
